<svg width="97" height="70" viewBox="0 0 97 70" fill="none" xmlns="http://www.w3.org/2000/svg">
<g clip-path="url(#clip0_103_129)">
<path fill-rule="evenodd" clip-rule="evenodd" d="M2.97982 0.170715H79.7089C80.9239 0.170715 81.9143 1.16756 81.9143 2.39005V7.33607H78.7056V5.62485C78.7056 4.54859 77.8344 3.66485 76.758 3.66485H5.93732C4.86632 3.66485 3.98311 4.54313 3.98966 5.62485V46.5132C3.98966 47.5894 4.868 48.4732 5.93732 48.4732H60.4238V57.269H2.97982C1.7648 57.269 0.774414 56.2722 0.774414 55.0497V2.39005C0.774414 1.16756 1.7648 0.170715 2.97982 0.170715ZM51.1082 16.8444C50.8204 16.555 50.421 16.5318 50.1276 16.8271L48.1664 18.8004C47.7879 19.1812 47.1858 19.2333 46.7558 18.9216C45.747 18.2968 44.7557 17.8271 43.6247 17.4677C43.4043 17.3941 43.2125 17.2524 43.0767 17.0629C42.9408 16.8734 42.8678 16.6456 42.8679 16.4119V13.4173C42.8675 13.2338 42.7948 13.0579 42.6659 12.9282C42.5369 12.7984 42.3622 12.7254 42.1798 12.7249H38.4292C38.0301 12.7249 37.7411 13.0151 37.7411 13.4173V16.1694C37.7411 16.7232 37.3453 17.1735 36.8295 17.2772C35.5714 17.5749 34.8096 17.9139 33.6638 18.4888C33.2168 18.7312 32.7005 18.6446 32.3566 18.2984L30.4607 16.4063C30.24 16.1859 30.0382 15.8916 29.6959 15.9219C29.536 15.9358 29.3774 16.0165 29.2429 16.152L26.6279 18.8004C26.5106 18.9184 26.4374 19.0553 26.4114 19.1956C26.3467 19.5487 26.5809 19.7745 26.7999 19.9947L28.5546 21.7603C28.9331 22.141 28.9846 22.747 28.6752 23.1794C28.0539 24.1949 27.5872 25.192 27.2301 26.3298C27.1569 26.5516 27.0161 26.7446 26.8277 26.8813C26.6392 27.018 26.4128 27.0915 26.1804 27.0914H23.2044C22.8161 27.0914 22.5335 27.3767 22.5335 27.7664V28.0716C21.7612 28.3095 21.0257 28.6549 20.3485 29.0979V27.732C20.3485 26.0874 21.6217 24.8067 23.2559 24.8067H25.4581C25.4753 24.7546 25.5095 24.6855 25.5267 24.6334C25.6472 24.3221 25.7847 24.0105 25.9225 23.6989C26.0772 23.3699 26.2149 23.0586 26.3695 22.7814L26.4214 22.6775L25.0969 21.3275C23.9472 20.1716 23.9464 18.3296 25.0969 17.1735L27.7118 14.5251V14.5078C28.8239 13.3888 30.7239 13.3119 31.7889 14.5251L33.3542 16.083C33.8808 15.9061 35.0406 15.359 35.5219 15.2523V13.3655C35.5219 11.768 36.8407 10.4403 38.4292 10.4403H42.1798C43.8214 10.4403 45.087 11.7145 45.087 13.3655V15.5809C45.7841 15.8161 46.5418 16.2187 47.203 16.5503L48.5448 15.2175C49.7409 14.014 51.5214 14.0929 52.6738 15.2519L54.7709 17.3484C55.448 18.0253 55.9498 18.5215 56.1456 19.506C56.3222 20.3944 56.0282 21.3442 55.3058 21.9852L53.7577 23.5602C53.7745 23.6123 53.8091 23.6642 53.8263 23.7162C53.9638 24.0105 54.0842 24.3221 54.2047 24.6163C54.2047 24.6334 54.2219 24.6507 54.2219 24.668C54.3425 24.9624 54.4454 25.2913 54.5487 25.6374L54.5831 25.7586H56.4754C58.0628 25.7586 59.3829 27.0857 59.3829 28.6838V29.249H58.8465C58.0553 28.5197 57.1555 27.9301 56.172 27.5197C56.0952 27.484 56.0172 27.4509 55.9382 27.4205C54.6463 26.9252 53.516 26.7169 52.5054 26.7144C52.2523 25.778 51.8766 24.7456 51.4006 23.9066C51.1596 23.4567 51.2457 22.9372 51.5898 22.591L53.5046 20.6489C53.6467 20.5047 53.8753 20.3178 53.9314 20.1259C53.998 19.8976 53.9172 19.6541 53.7231 19.458L51.091 16.8271L51.1082 16.8444ZM41.5257 21.7947C44.777 22.4299 47.2933 25.0081 48.0346 28.1977C47.5428 28.5263 47.0734 28.8852 46.613 29.249H46.0134C45.996 29.1175 45.9739 28.9867 45.9472 28.8568C45.7695 28.0348 45.4758 27.2876 45.0011 26.5896C44.5526 25.9304 44.0248 25.357 43.3495 24.9277C42.6781 24.4661 41.8906 24.142 41.0959 23.9757C39.4954 23.626 37.6801 23.9998 36.3304 24.9277C34.9561 25.8738 34.0706 27.2255 33.733 28.8568C33.7051 28.9865 33.6826 29.1174 33.6655 29.249H31.4513C31.4791 28.9656 31.5222 28.6842 31.5824 28.407C31.9825 26.3269 33.3428 24.2371 35.1092 23.0756C36.9105 21.8215 39.3856 21.3246 41.5257 21.7947ZM28.6859 41.3773C27.2705 42.4582 25.6822 43.316 23.349 42.4232C21.8366 41.8464 20.5967 40.5116 19.9043 38.8299C25.9304 41.5777 28.0881 33.6906 20.9523 33.4531C23.1304 30.8147 26.3424 30.8362 28.9378 32.771C30.1646 33.6841 30.8548 34.1425 31.5611 34.3425C31.9477 34.4579 32.3356 34.4795 32.8264 34.4805C34.4838 34.4863 43.1737 34.2959 44.9329 34.259C48.2452 34.1935 49.9198 29.07 54.6306 30.8757C56.143 31.4527 57.3829 32.7873 58.0755 34.4692C52.0492 31.7214 49.8917 39.6087 57.0273 39.8456C54.8492 42.4842 51.6372 42.4628 49.0418 40.528C47.9046 39.6772 47.1863 38.6767 44.9428 38.74C43.3866 38.8066 34.7148 38.9086 33.1547 39.0138C32.5346 39.0512 32.1228 39.113 31.7311 39.2665C31.0233 39.5385 30.3816 40.0925 28.7078 41.3763L28.6859 41.3773ZM70.3125 10.6749H93.5433C95.192 10.6749 96.5397 12.031 96.5397 13.6901V66.3722C96.5397 68.0311 95.192 69.3872 93.5433 69.3872H70.3125C68.6639 69.3872 67.3161 68.0311 67.3161 66.3722V13.6901C67.3161 12.031 68.6639 10.6749 70.3125 10.6749ZM88.3454 22.8859H91.8184V24.4029H88.3454V22.8859ZM81.9255 56.9068C83.7226 56.9068 85.1827 58.376 85.1827 60.1841C85.1827 61.9922 83.7226 63.4612 81.9255 63.4612C80.1288 63.4612 78.6688 61.9922 78.6688 60.1841C78.6731 58.376 80.1288 56.9068 81.9255 56.9068ZM71.3728 20.5335H92.4831C92.6486 20.5339 92.8071 20.6003 92.9241 20.718C93.0411 20.8357 93.107 20.9952 93.1074 21.1617V25.0356C93.1074 25.3792 92.8245 25.6639 92.4831 25.6639H71.3728C71.2074 25.6635 71.0488 25.5971 70.9318 25.4794C70.8148 25.3616 70.7489 25.2021 70.7485 25.0356V21.1617C70.7489 20.9952 70.8148 20.8356 70.9318 20.7179C71.0488 20.6002 71.2074 20.5339 71.3728 20.5335ZM31.3405 60.3315H51.3482C51.4009 63.813 52.8275 66.9354 56.6903 69.3872H25.9988C29.0889 67.1347 31.3536 64.3973 31.3405 60.3315Z" fill="#FFDB70"/>
</g>
<defs>
<clipPath id="clip0_103_129">
<rect width="95.7652" height="69.2165" fill="white" transform="translate(0.774414 0.170715)"/>
</clipPath>
</defs>
</svg>
