<svg width="111" height="70" viewBox="0 0 111 70" fill="none" xmlns="http://www.w3.org/2000/svg">
<g clip-path="url(#clip0_103_116)">
<path fill-rule="evenodd" clip-rule="evenodd" d="M2.64892 64.2356H13.918C13.5023 64.1257 13.1343 63.8824 12.8707 63.543C12.6071 63.2036 12.4624 62.787 12.459 62.3574V16.2697C12.4614 15.7541 12.668 15.2605 13.0337 14.8968C13.3994 14.5331 13.8943 14.3289 14.4103 14.3289H26.7625L25.9658 17.5308H15.9409V61.8028H94.5829V17.5218H84.737L83.8419 14.3199H95.8897C96.4002 14.3293 96.8864 14.5392 97.2432 14.9041C97.6 15.269 97.7987 15.7595 97.7962 16.2697V62.3484C97.7959 62.7788 97.6524 63.1969 97.3883 63.5369C97.1242 63.8769 96.7545 64.1195 96.3373 64.2266H108.126C111.133 64.2266 111.133 69.3872 108.126 69.3872H2.64892C-0.358559 69.3872 -0.358559 64.2356 2.64892 64.2356ZM52.0486 0.170755H59.7284C60.0014 0.170755 60.2632 0.279119 60.4562 0.472008C60.6493 0.664897 60.7577 0.926511 60.7577 1.1993V3.7483H72.895C73.0993 3.15828 73.4361 2.62286 73.8796 2.18312C74.2656 1.79534 74.7244 1.48761 75.2298 1.27762C75.7352 1.06764 76.2771 0.959536 76.8245 0.959536C77.3718 0.959536 77.9137 1.06764 78.4191 1.27762C78.9245 1.48761 79.3833 1.79534 79.7693 2.18312C80.1574 2.56877 80.4653 3.02727 80.6755 3.53225C80.8856 4.03724 80.9938 4.57875 80.9938 5.12565C80.9938 5.67255 80.8856 6.21406 80.6755 6.71904C80.4653 7.22403 80.1574 7.68252 79.7693 8.06818C79.3833 8.45596 78.9245 8.76369 78.4191 8.97367C77.9137 9.18366 77.3718 9.29176 76.8245 9.29176C76.2771 9.29176 75.7352 9.18366 75.2298 8.97367C74.7244 8.76369 74.2656 8.45596 73.8796 8.06818C73.4278 7.60711 73.0905 7.0465 72.895 6.43145H66.6295C68.6531 7.60003 70.483 9.07545 72.0537 10.805C75.1875 14.2641 77.2572 18.5524 78.0149 23.1565H79.6977C79.8617 23.1529 80.0248 23.1822 80.1773 23.2427C80.3298 23.3032 80.4685 23.3937 80.5854 23.5088C80.7022 23.6239 80.7948 23.7613 80.8576 23.9128C80.9203 24.0642 80.952 24.2268 80.9508 24.3907V30.0164C80.952 30.178 80.9211 30.3383 80.86 30.488C80.7989 30.6377 80.7088 30.7739 80.5948 30.8886C80.4808 31.0033 80.3452 31.0944 80.1959 31.1565C80.0465 31.2187 79.8863 31.2506 79.7245 31.2506H74.1302C73.968 31.2506 73.8074 31.2187 73.6576 31.1567C73.5077 31.0947 73.3715 31.0037 73.2568 30.8891C73.1421 30.7745 73.0511 30.6385 72.9891 30.4887C72.927 30.339 72.895 30.1785 72.895 30.0164V24.3907C72.895 24.0634 73.0252 23.7494 73.2568 23.518C73.4885 23.2865 73.8027 23.1565 74.1302 23.1565H75.4192C74.6812 19.2047 72.8591 15.5354 70.1561 12.558C67.6363 9.77701 64.3766 7.76995 60.7577 6.77132V8.96256C60.7601 9.09913 60.7352 9.2348 60.6846 9.36166C60.6339 9.48852 60.5585 9.60403 60.4626 9.70144C60.3668 9.79885 60.2525 9.87622 60.1265 9.92902C60.0004 9.98183 59.8651 10.009 59.7284 10.009H52.0486C51.913 10.0102 51.7787 9.9844 51.6532 9.93313C51.5278 9.88186 51.4139 9.80614 51.318 9.7104C51.2222 9.61465 51.1464 9.50079 51.0951 9.37546C51.0438 9.25013 51.018 9.11585 51.0192 8.98045V6.77132C47.3051 7.80083 43.9751 9.89682 41.4418 12.7995C38.864 15.7408 37.1183 19.3161 36.3846 23.1565H37.6467C37.8089 23.1565 37.9695 23.1884 38.1194 23.2504C38.2692 23.3124 38.4054 23.4033 38.5201 23.518C38.6348 23.6326 38.7258 23.7686 38.7879 23.9184C38.8499 24.0681 38.8819 24.2286 38.8819 24.3907V30.0164C38.8819 30.1785 38.8499 30.339 38.7879 30.4887C38.7258 30.6385 38.6348 30.7745 38.5201 30.8891C38.4054 31.0037 38.2692 31.0947 38.1194 31.1567C37.9695 31.2187 37.8089 31.2506 37.6467 31.2506H32.0793C31.9155 31.253 31.753 31.2228 31.6011 31.1619C31.4491 31.1009 31.3108 31.0104 31.1942 30.8955C31.0776 30.7807 30.985 30.6438 30.9218 30.4929C30.8587 30.342 30.8261 30.18 30.8261 30.0164V24.3907C30.8261 24.2271 30.8587 24.0651 30.9218 23.9142C30.985 23.7633 31.0776 23.6264 31.1942 23.5116C31.3108 23.3967 31.4491 23.3062 31.6011 23.2452C31.753 23.1843 31.9155 23.1541 32.0793 23.1565H33.7889C34.553 18.6871 36.5421 14.5169 39.5353 11.1091C41.1383 9.2546 43.0341 7.67454 45.1475 6.43145H37.9062C37.7019 7.01882 37.365 7.55131 36.9217 7.98768C36.5361 8.37617 36.0774 8.68448 35.572 8.89479C35.0665 9.10511 34.5243 9.21325 33.9768 9.21299C32.8692 9.20903 31.8078 8.76874 31.0231 7.98768C30.635 7.60203 30.327 7.14353 30.1168 6.63855C29.9067 6.13357 29.7985 5.59206 29.7985 5.04515C29.7985 4.49825 29.9067 3.95674 30.1168 3.45176C30.327 2.94678 30.635 2.48828 31.0231 2.10263C31.409 1.71484 31.8679 1.40711 32.3732 1.19713C32.8786 0.987142 33.4205 0.879042 33.9679 0.879042C34.5152 0.879042 35.0571 0.987142 35.5625 1.19713C36.0679 1.40711 36.5267 1.71484 36.9127 2.10263C37.3701 2.56448 37.7107 3.12863 37.9062 3.7483H51.0192V1.1993C51.018 1.0639 51.0438 0.929612 51.0951 0.804284C51.1464 0.678957 51.2222 0.565097 51.318 0.469349C51.4139 0.373601 51.5278 0.297885 51.6532 0.246618C51.7787 0.195351 51.913 0.169562 52.0486 0.170755ZM67.2202 36.608L63.2371 46.7861L48.5488 46.5983L44.4851 36.608C47.9759 30.3473 51.5294 22.754 53.3554 16.0371L55.2888 16.2518L55.2171 34.2468C54.7917 34.4011 54.4354 34.7023 54.2127 35.0959C53.9899 35.4896 53.9153 35.9499 54.0023 36.3937C54.0893 36.8375 54.3322 37.2356 54.6871 37.5162C55.0421 37.7968 55.4857 37.9414 55.938 37.9239C56.3902 37.9063 56.8213 37.7279 57.1535 37.4207C57.4856 37.1135 57.697 36.6978 57.7493 36.2486C57.8017 35.7993 57.6916 35.3462 57.439 34.971C57.1864 34.5957 56.8079 34.323 56.3718 34.2021L56.4255 16.3949L58.6453 16.2697C60.2654 22.9865 63.7831 30.5799 67.2202 36.5812V36.608ZM62.888 51.1507H48.6204V48.3066H62.888V51.1507ZM52.1918 65.0852H58.5737C60.0148 65.0852 60.0148 67.8847 58.5737 67.8847H52.1918C50.7507 67.8847 50.7417 65.0852 52.1918 65.0852Z" fill="#FFDB70"/>
</g>
<defs>
<clipPath id="clip0_103_116">
<rect width="109.988" height="69.2165" fill="white" transform="translate(0.393311 0.170715)"/>
</clipPath>
</defs>
</svg>
