<svg width="60" height="68" viewBox="0 0 60 68" fill="none" xmlns="http://www.w3.org/2000/svg">
<g clip-path="url(#clip0_103_121)">
<path fill-rule="evenodd" clip-rule="evenodd" d="M39.6323 22.0685C39.8594 22.2094 40.0553 22.3958 40.2079 22.6163L41.7065 24.7037C41.8586 24.919 41.9709 25.1602 42.0378 25.4159C42.0921 25.676 42.0921 25.9447 42.0378 26.2048C42.0052 26.4636 41.9261 26.7142 41.8043 26.9444C41.6644 27.1642 41.4792 27.3511 41.2613 27.4922L40.0396 28.3962C40.0396 28.4291 40.0396 28.4729 40.0396 28.5058C40.0993 28.7249 40.1482 28.9495 40.197 29.1632C40.197 29.1632 40.197 29.1906 40.197 29.2015C40.2459 29.4152 40.2785 29.6508 40.3111 29.8973V29.985L41.5979 30.1986C41.8612 30.237 42.1131 30.3323 42.3364 30.478C42.552 30.622 42.7367 30.8084 42.8794 31.0259C43.0338 31.2364 43.143 31.4771 43.1998 31.7326C43.2486 31.9896 43.2486 32.2536 43.1998 32.5106L42.8903 35.0909C42.8528 35.3547 42.7622 35.608 42.624 35.8351C42.4858 36.0622 42.3029 36.2583 42.0866 36.4113C41.8738 36.5679 41.6319 36.6797 41.3753 36.74C41.1152 36.7894 40.8481 36.7894 40.588 36.74L39.0893 36.5099C39.0696 36.5476 39.0479 36.5842 39.0242 36.6194C38.9101 36.8222 38.7798 37.0194 38.6549 37.2166C38.53 37.4138 38.3834 37.6165 38.2477 37.7645L38.1988 37.8247L38.9427 38.8985L38.9753 38.9369C39.125 39.1521 39.2286 39.3966 39.2794 39.6545C39.3283 39.9115 39.3283 40.1755 39.2794 40.4325C39.2368 40.6875 39.1485 40.9326 39.0187 41.1557C38.8783 41.3841 38.6936 41.5816 38.4757 41.7364L36.4124 43.2813C36.2035 43.4415 35.9655 43.5588 35.7119 43.6265C35.4489 43.6843 35.1767 43.6843 34.9137 43.6265C34.6489 43.5809 34.3949 43.4862 34.1644 43.3471C33.9472 43.205 33.7622 43.0183 33.6214 42.7992L32.7526 41.5666C32.713 41.5834 32.6706 41.5927 32.6277 41.5939C32.4105 41.6433 32.1879 41.7035 31.9544 41.7528C31.7209 41.8021 31.4928 41.835 31.2593 41.8679C31.2273 41.876 31.1937 41.876 31.1616 41.8679L30.9444 43.1663C30.9058 43.43 30.8113 43.6823 30.6675 43.9059C30.5253 44.1239 30.3406 44.3103 30.1245 44.4537C29.9143 44.6057 29.6762 44.7138 29.424 44.7715C29.171 44.8288 28.9099 44.8399 28.653 44.8044L26.1009 44.3825C25.7091 44.3189 25.3449 44.1391 25.0548 43.8659C24.7647 43.5927 24.5618 43.2385 24.4719 42.8485C24.42 42.5882 24.42 42.32 24.4719 42.0596L24.7163 40.5476L24.6077 40.4818C24.4068 40.3613 24.2113 40.2353 24.0158 40.1038C23.8203 39.9723 23.6194 39.8353 23.4728 39.6929L23.3425 39.6819L22.2891 40.4544H22.2511C22.0377 40.6055 21.7954 40.71 21.5398 40.7612C21.2851 40.8108 21.0234 40.8108 20.7687 40.7612C20.5295 40.7302 20.2977 40.656 20.0845 40.5421C19.8621 40.4088 19.6667 40.234 19.509 40.0271L18.0157 37.9014C17.8623 37.6889 17.7499 37.4492 17.6845 37.1947C17.6212 36.9346 17.6119 36.6642 17.6574 36.4003C17.6899 36.1229 17.7767 35.8548 17.9126 35.6114C18.0599 35.3977 18.2437 35.2122 18.4556 35.0635L19.6773 34.187C19.662 34.1466 19.6528 34.1041 19.6501 34.061C19.6013 33.8473 19.5415 33.6172 19.4927 33.3816C19.4438 33.1461 19.4004 32.916 19.3786 32.6859V32.5873L18.1026 32.3736C17.841 32.3389 17.5905 32.2453 17.3696 32.0997C17.1531 31.9567 16.9683 31.7702 16.8266 31.5518C16.6759 31.3398 16.5688 31.0995 16.5116 30.8451C16.4548 30.5898 16.4438 30.3263 16.4791 30.0671L16.8972 27.4922C16.9382 27.2308 17.0285 26.9797 17.1632 26.7526C17.3056 26.5257 17.49 26.3285 17.7062 26.1719C17.9204 26.0141 18.1643 25.9023 18.423 25.8432C18.6813 25.7937 18.9466 25.7937 19.2049 25.8432L20.6981 26.0897L20.7687 25.9802C20.8827 25.7829 21.0131 25.5857 21.1379 25.3885C21.2628 25.1912 21.4094 24.9831 21.5452 24.8406L21.5941 24.7749L20.8393 23.6792C20.681 23.4642 20.5699 23.2177 20.5135 22.956C20.4505 22.6978 20.4412 22.4291 20.4864 22.1671C20.5252 21.9017 20.6196 21.6477 20.7633 21.422C20.9046 21.1957 21.0892 21.0002 21.3063 20.8468L23.3425 19.3128C23.5559 19.1593 23.795 19.0461 24.0484 18.9786C24.3062 18.9238 24.5725 18.9238 24.8303 18.9786C25.0916 19.0244 25.3421 19.1191 25.5688 19.258C25.7854 19.4007 25.9703 19.5873 26.1118 19.8059L27.0077 21.0385L27.1054 21.0111C27.3226 20.9454 27.5453 20.9016 27.7842 20.8413C28.0231 20.781 28.2403 20.7591 28.4738 20.7262C28.5061 20.7208 28.5392 20.7208 28.5715 20.7262L28.7724 19.4004C28.8119 19.1352 28.9063 18.8814 29.0494 18.6554C29.1926 18.4382 29.3771 18.252 29.5924 18.1075C29.803 17.9564 30.041 17.8484 30.2928 17.7898C30.5476 17.7318 30.8106 17.7207 31.0693 17.7569L33.6159 18.1787C33.8768 18.2201 34.1274 18.3112 34.3544 18.4472C34.5812 18.5864 34.7756 18.7733 34.9246 18.995C35.0803 19.2102 35.1928 19.454 35.2558 19.7127C35.3049 19.9752 35.3049 20.2446 35.2558 20.5071L35.006 22.0137L35.1146 22.0794C35.3155 22.2 35.511 22.326 35.7065 22.4575C35.9019 22.5889 36.1028 22.7314 36.2495 22.8683L36.3092 22.9122L37.3952 22.1561C37.605 21.9944 37.8481 21.8821 38.1065 21.8274C38.3643 21.7646 38.6318 21.7534 38.8938 21.7946C39.1536 21.8397 39.4024 21.9346 39.6269 22.074V22.1014L39.6323 22.0685ZM17.6682 46.0206C16.8917 45.1276 16.1044 44.2127 15.3442 43.1772C14.497 42.0304 13.7691 40.7985 13.1722 39.5012C13.0962 39.3423 13.0256 39.1834 12.955 39.0245C12.0133 36.994 11.4378 34.8105 11.2555 32.5763C11.2066 32.0284 11.1849 31.4368 11.1903 30.8725V30.8013V30.6588C11.2192 29.1552 11.4233 27.6603 11.7984 26.2048C12.223 24.5775 12.8296 23.0041 13.6066 21.5152L13.6718 21.3891C14.6555 19.6805 15.9039 18.1417 17.3696 16.831C18.7416 15.6207 20.2936 14.6353 21.9687 13.911C23.968 12.9756 26.1148 12.4026 28.3109 12.2181C32.0161 11.91 35.7283 12.7226 38.9739 14.5522C42.2196 16.3817 44.8514 19.1453 46.5338 22.4903L46.5772 22.567L46.6152 22.6492C46.7998 23.0217 46.9736 23.4052 47.1311 23.7942L47.1636 23.8819V23.9147V23.9586V24.0079C47.5599 25.0163 47.8688 26.0574 48.0867 27.1197V27.169V27.2238V27.2676C48.2818 28.2445 48.398 29.2357 48.4342 30.2315C48.6105 33.6205 47.873 36.9944 46.3003 39.9942L58.8652 51.4005L53.7501 56.9776L41.9346 46.2014L38.3834 51.9155L37.9436 54.0028L37.8078 55.7285L37.8513 57.9528C37.9164 58.7001 37.9164 59.4517 37.8513 60.199C37.7898 60.9951 37.6067 61.7768 37.3083 62.5164C37.2297 62.7332 37.139 62.9454 37.0368 63.1519C36.1856 64.9337 34.7428 66.3584 32.9589 67.1787C32.0614 67.6008 31.0889 67.8367 30.0993 67.8725C29.1096 67.9082 28.1229 67.7431 27.1978 67.3868C27.0023 67.3102 26.8122 67.228 26.6548 67.1403L26.5787 67.0965C25.6009 66.6287 24.751 65.9272 24.1027 65.053L24.043 64.9653C23.5029 64.1812 23.0495 63.3398 22.6909 62.4562C22.6487 62.3639 22.6195 62.2662 22.604 62.1658C22.4127 61.4273 22.2694 60.677 22.1751 59.9196C22.099 59.2622 22.0773 58.5829 22.061 57.5803C21.9709 55.4788 21.5227 53.4087 20.7361 51.4608C20.0238 49.4863 18.9866 47.6471 17.6682 46.0206ZM25.319 62.1165L35.2286 60.6318C35.2721 60.4127 35.3046 60.1881 35.3264 59.9634C35.3753 59.3527 35.3753 58.7389 35.3264 58.1281V57.531L24.6457 59.1307C24.6457 59.2896 24.6728 59.4485 24.6891 59.6073C24.7706 60.2441 24.8903 60.8753 25.0475 61.4974L25.319 62.111V62.1165ZM34.0395 63.1684L26.8122 64.2641C27.0798 64.48 27.3714 64.6639 27.681 64.8119H27.7353L28.11 64.9763C28.7212 65.2092 29.3725 65.3162 30.0253 65.2908C30.6782 65.2654 31.3194 65.1081 31.9109 64.8284C32.7463 64.4445 33.4795 63.8662 34.0503 63.141L34.0395 63.1684ZM24.5588 56.7804L35.2884 55.1697L35.4024 53.7289C35.3971 53.6724 35.3971 53.6155 35.4024 53.5591L35.6522 52.5948L24.2059 54.2986C24.3793 55.1169 24.4972 55.946 24.5588 56.7804ZM23.6086 52.047L36.5427 50.1076L37.7861 48.1024C35.3217 49.2621 32.6367 49.8666 29.9175 49.8742C27.1983 49.8818 24.51 49.2922 22.0393 48.1463C22.4303 48.9297 22.7886 49.746 23.1253 50.5732C23.3153 51.0608 23.4837 51.5539 23.6683 52.047H23.6086ZM57.7412 26.6595C58.2239 26.6315 58.6988 26.7925 59.0669 27.1088C59.4351 27.4251 59.6681 27.8725 59.7177 28.3578V28.44C59.7476 28.9125 59.5981 29.3787 59.2995 29.7439C58.987 30.1334 58.5338 30.3817 58.0398 30.4342L53.5818 30.9053C53.3369 30.9316 53.0892 30.9083 52.8534 30.8368C52.6175 30.7653 52.3981 30.6471 52.208 30.489C52.0163 30.3322 51.8571 30.1387 51.7397 29.9196C51.6223 29.7006 51.5489 29.4602 51.5239 29.2125C51.4983 28.9662 51.5216 28.7173 51.5924 28.4803C51.6633 28.2432 51.7803 28.0228 51.9366 27.8319C52.0906 27.6338 52.2824 27.4687 52.5006 27.3464C52.7188 27.2241 52.959 27.147 53.2072 27.1197C54.7058 26.9608 56.2479 26.7581 57.7412 26.6376V26.6595ZM1.89967 32.6968C1.41256 32.7064 0.941021 32.5236 0.585625 32.1873C0.308367 31.9325 0.113288 31.5996 0.0256374 31.2317C-0.062013 30.8638 -0.0382001 30.4778 0.0939941 30.1237C0.226188 29.7696 0.460678 29.4637 0.767114 29.2456C1.07355 29.0275 1.43782 28.9071 1.81279 28.9002L6.28706 28.7468C6.5331 28.7388 6.7783 28.7797 7.00864 28.8674C7.23898 28.955 7.44994 29.0876 7.62947 29.2575C7.80899 29.4274 7.95356 29.6314 8.05491 29.8578C8.15626 30.0841 8.2124 30.3284 8.22012 30.5766V30.6807C8.21593 31.1517 8.03556 31.6037 7.71513 31.9463C7.37383 32.3113 6.90362 32.5259 6.40652 32.5434C4.90786 32.5873 3.3929 32.6749 1.89967 32.6968ZM7.38934 9.98833C7.02499 9.64688 6.81 9.17338 6.79167 8.672C6.77334 8.17062 6.95317 7.68242 7.2916 7.31481C7.63002 6.94721 8.09933 6.7303 8.59626 6.7118C9.0932 6.69331 9.57706 6.87475 9.94141 7.2162L13.1994 10.3006C13.5637 10.6421 13.7787 11.1156 13.797 11.6169C13.8154 12.1183 13.6355 12.6065 13.2971 12.9741C12.9587 13.3417 12.4894 13.5586 11.9924 13.5771C11.4955 13.5956 11.0116 13.4142 10.6473 13.0727L7.38934 9.98833ZM29.6521 2.41153C29.6492 2.37507 29.6492 2.33843 29.6521 2.30196C29.6854 1.81953 29.9013 1.3685 30.2551 1.04218C30.6088 0.715857 31.0733 0.539228 31.5526 0.548834H31.6666C32.1414 0.585007 32.5847 0.802241 32.9065 1.15638C33.2282 1.51052 33.4042 1.97498 33.3987 2.45536C33.4016 2.48634 33.4016 2.51752 33.3987 2.5485L33.2901 6.97514C33.2928 7.01345 33.2928 7.05189 33.2901 7.09019C33.255 7.55693 33.05 7.99405 32.7146 8.31738C32.5413 8.49197 32.3355 8.63025 32.1091 8.72427C31.8826 8.81829 31.64 8.8662 31.3951 8.86524C31.3591 8.87072 31.3225 8.87072 31.2865 8.86524C30.8214 8.83323 30.3853 8.62593 30.0648 8.28451C29.7181 7.93174 29.5231 7.45547 29.5218 6.95871C29.5191 6.92772 29.5191 6.89656 29.5218 6.86557L29.6304 2.43893L29.6521 2.41153ZM48.9827 8.55844C49.2619 8.15158 49.6859 7.86902 50.1664 7.76953C50.4082 7.72135 50.657 7.72221 50.8985 7.77206C51.14 7.82192 51.3692 7.91976 51.5727 8.05989C51.9804 8.34071 52.263 8.77135 52.3601 9.25969C52.408 9.50275 52.4072 9.75302 52.3578 9.99577C52.3084 10.2385 52.2113 10.4688 52.0723 10.6731L49.5854 14.4314C49.4486 14.6381 49.2728 14.8155 49.068 14.9535C48.8632 15.0915 48.6335 15.1875 48.3919 15.2358C48.1503 15.2842 47.9016 15.284 47.6601 15.2352C47.4186 15.1865 47.189 15.0902 46.9844 14.9519C46.7775 14.816 46.5991 14.6403 46.4597 14.4346C46.3203 14.229 46.2225 13.9976 46.1721 13.7537C46.1216 13.5098 46.1194 13.2583 46.1656 13.0135C46.2119 12.7688 46.3056 12.5357 46.4415 12.3277L48.9447 8.55296L48.9827 8.55844ZM18.9985 43.6484L19.1669 43.7908C22.18 46.3648 26.0041 47.7705 29.9522 47.7555C33.9003 47.7404 37.7137 46.3056 40.7074 43.7087C42.3955 41.7995 43.7537 39.618 44.7256 37.255L44.7527 37.1892C45.1919 36.1014 45.5247 34.973 45.7464 33.8199C45.95 32.7128 46.0391 31.5873 46.0125 30.4616C45.9842 29.4528 45.8587 28.4491 45.6378 27.4648C45.431 26.529 45.1459 25.6127 44.7853 24.7256C44.1768 23.2221 43.3214 21.833 42.255 20.6167C41.1362 19.351 39.828 18.2696 38.378 17.4117C37.254 16.7423 36.0592 16.202 34.816 15.801C33.5575 15.4029 32.259 15.1475 30.9444 15.0395C29.6112 14.9163 28.2682 14.9494 26.9425 15.1381C25.7089 15.3173 24.5005 15.6428 23.3425 16.1078L23.2448 16.1572C21.7151 16.7804 20.3 17.6582 19.0583 18.754C17.8039 19.8689 16.7335 21.1782 15.8872 22.6328L15.86 22.6821C15.1641 24.0033 14.6194 25.4002 14.2365 26.8458C13.894 28.1458 13.7116 29.4835 13.6935 30.8286C13.6862 32.1202 13.8339 33.4079 14.1333 34.6636C14.4396 35.9579 14.8762 37.2172 15.4365 38.4219C15.9717 39.5569 16.6193 40.6344 17.3696 41.6378C17.9126 42.3445 18.4556 42.9965 18.966 43.632L18.9985 43.6484ZM29.8584 23.8874C31.3082 23.8874 32.7255 24.3211 33.931 25.1338C35.1365 25.9465 36.076 27.1016 36.6308 28.453C37.1857 29.8045 37.3308 31.2916 37.048 32.7263C36.7651 34.1609 36.067 35.4788 35.0418 36.5131C34.0166 37.5475 32.7105 38.2519 31.2885 38.5373C29.8666 38.8226 28.3927 38.6762 27.0532 38.1164C25.7137 37.5566 24.5689 36.6086 23.7634 35.3924C22.9579 34.1761 22.528 32.7462 22.528 31.2834C22.528 29.3218 23.3003 27.4406 24.675 26.0536C26.0498 24.6666 27.9143 23.8874 29.8584 23.8874Z" fill="#FFDB70"/>
</g>
<defs>
<clipPath id="clip0_103_121">
<rect width="59.7348" height="67.3201" fill="white" transform="translate(-0.00610352 0.548767)"/>
</clipPath>
</defs>
</svg>
