<svg width="84" height="70" viewBox="0 0 84 70" fill="none" xmlns="http://www.w3.org/2000/svg">
<g clip-path="url(#clip0_103_133)">
<path d="M62.4365 0.600586V6.38841H69.6274V12.6716H62.4365V22.6866L56.1487 25.2175V12.6648H13.8385V57.5086H56.1487V49.8752L62.4365 47.8192V57.5289H69.6274V63.8121H62.4365V69.8238H56.1487V63.8121H13.8385V69.8238H7.55065V63.8121H0.359741V57.5289H7.55065V12.6716H0.359741V6.38841H7.55065V0.600586H13.8385V6.38841H56.1487V0.600586H62.4365ZM58.5593 32.0163C60.8544 34.7169 62.4705 37.6278 63.3396 40.7693L81.7617 27.3345C83.3302 26.3439 84.2877 25.4346 83.5543 23.3041C83.113 22.6323 82.5901 22.2184 81.9858 22.0556C81.3814 21.8927 80.6956 21.9877 79.9351 22.3406L58.5593 32.0163ZM30.8821 52.4943C36.4501 49.9634 43.5324 55.2491 47.8035 49.7734C48.9374 48.3213 49.5486 46.15 49.1547 44.257C48.9986 43.4902 48.6794 42.7778 48.1837 42.1807C47.9596 41.916 47.7084 41.6718 47.4164 41.4479C43.7972 38.6659 39.0644 40.6336 36.1785 43.5581C33.5303 46.2518 31.8802 49.943 30.8821 52.4943ZM49.5554 39.5548C50.6079 40.4165 51.9184 42.2892 51.9659 44.067L61.7711 41.5564C60.8137 38.1027 59.3266 35.0154 56.9432 32.566C53.3036 35.8636 53.5548 36.5285 49.5554 39.5548ZM38.9625 31.8535L31.0247 40.4979V27.3617H23.5486V20.7732H46.4386V27.3617H38.9625V31.8535Z" fill="#FFDB70"/>
</g>
<defs>
<clipPath id="clip0_103_133">
<rect width="83.439" height="69.2165" fill="white" transform="translate(0.359741 0.600586)"/>
</clipPath>
</defs>
</svg>
