<?xml version="1.0" encoding="UTF-8"?>
<svg id="Layer_3" xmlns="http://www.w3.org/2000/svg" xmlns:xlink="http://www.w3.org/1999/xlink" viewBox="0 0 1466.3 240.23">
  <defs>
    <style>
      .cls-1 {
        fill: url(#linear-gradient-2);
      }

      .cls-2 {
        fill: #fff;
      }

      .cls-3 {
        fill: url(#linear-gradient-3);
      }

      .cls-4 {
        fill: #005180;
      }

      .cls-5 {
        fill: url(#linear-gradient);
      }
    </style>
    <linearGradient id="linear-gradient" x1="1286.41" y1="120.21" x2="1313.07" y2="120.21" gradientUnits="userSpaceOnUse">
      <stop offset="0" stop-color="#ffd900"/>
      <stop offset=".1" stop-color="#fdcf03"/>
      <stop offset=".7" stop-color="#f89c17"/>
      <stop offset="1" stop-color="#f6881f"/>
    </linearGradient>
    <linearGradient id="linear-gradient-2" x1="1333.38" x2="1455.19" xlink:href="#linear-gradient"/>
    <linearGradient id="linear-gradient-3" x1="3342.91" y1="-3938.11" x2="3507.91" y2="-3938.11" gradientTransform="translate(2196.07 4887.88) rotate(-64.39)" xlink:href="#linear-gradient"/>
  </defs>
  <rect class="cls-4" x="-.67" y="0" width="1466.3" height="240.23"/>
  <g id="Layer_1">
    <path class="cls-2" d="M274.83,177.27c.32-3.25,1.37-6.44,3.15-9.57,1.78-3.12,3.79-5.61,6.02-7.46,5.54,3.51,11.71,6.52,18.49,9.04,6.78,2.52,13.49,3.78,20.11,3.78,7.26,0,12.84-1.61,16.72-4.83,3.88-3.22,5.83-7.26,5.83-12.1,0-3.95-1.34-7.59-4.01-10.9-2.68-3.31-6.79-6.15-12.33-8.51l-23.03-9.66c-8.03-3.38-14.46-7.73-19.3-13.06-4.84-5.32-7.26-12.2-7.26-20.61,0-7.14,1.88-13.54,5.64-19.18,3.76-5.64,8.95-10.11,15.58-13.39,6.62-3.28,14.2-4.93,22.74-4.93s15.92,1.04,23.12,3.11,13.28,4.38,18.25,6.93c-.19,3.19-1,6.35-2.44,9.47-1.43,3.13-3.3,5.74-5.59,7.84-4.97-2.49-10.48-4.62-16.53-6.41-6.05-1.78-11.56-2.68-16.53-2.68-6.75,0-11.99,1.63-15.72,4.88s-5.59,7.17-5.59,11.77c0,3.83,1.34,7,4.01,9.52s6.31,4.77,10.89,6.74l23.03,9.47c5.6,2.3,10.56,5.18,14.86,8.66,4.3,3.48,7.68,7.49,10.13,12.05,2.45,4.56,3.68,9.71,3.68,15.45,0,7.4-1.75,14.03-5.26,19.9-3.5,5.87-8.76,10.49-15.77,13.87-7.01,3.38-15.83,5.07-26.47,5.07-7.9,0-15.97-1.26-24.22-3.78-8.25-2.52-15.66-6.01-22.22-10.48Z"/>
    <path class="cls-2" d="M411.47,189.04c-1.47.25-3.14.44-5.02.57-1.88.13-3.81.19-5.78.19s-3.76-.07-5.54-.19c-1.79-.13-3.44-.32-4.97-.57V49.57l1.24-1.24h8.31c4.46,0,7.53,1.07,9.22,3.2,1.69,2.14,2.53,5.63,2.53,10.47v127.03ZM460.59,168.38c1.53,4.08,2.99,7.32,4.4,9.71s2.99,4.22,4.78,5.5c-1.59,1.91-3.71,3.52-6.35,4.83-2.64,1.31-5.4,1.96-8.27,1.96-3.63,0-6.34-.96-8.12-2.87-1.79-1.91-3.41-4.81-4.87-8.7l-7.26-18.27c-1.85-4.78-3.84-7.99-5.97-9.61-2.14-1.63-5.24-2.44-9.32-2.44-1.98,0-3.93.06-5.88.19-1.94.13-4.03.32-6.26.57l-7.07.77v-15.59h26.47c6.94,0,12.63,1.45,17.06,4.35,4.43,2.9,7.94,7.64,10.56,14.2l6.12,15.4ZM444.25,127.72c-2.68,4.59-6.08,7.94-10.22,10.04-4.14,2.1-9.24,3.16-15.29,3.16h-15.96v-9.95l14.43-.48c1.15,0,2.07-.22,2.77-.67.7-.45,1.37-1.21,2.01-2.3l15.38-24.97c1.59-2.87,3.41-5.05,5.45-6.55,2.04-1.5,4.78-2.25,8.22-2.25,2.23,0,4.24.02,6.02.05,1.78.03,3.66.11,5.64.24l1.15,1.53-19.59,32.14Z"/>
    <path class="cls-2" d="M510.37,189.04c-1.47.25-3.14.44-5.02.57-1.88.13-3.81.19-5.78.19s-3.82-.07-5.74-.19c-1.91-.13-3.63-.32-5.16-.57v-68.78c0-3.31-.62-5.84-1.86-7.56s-3.42-2.58-6.55-2.58h-2.39c-.57-2.55-.86-5.1-.86-7.65,0-1.21.06-2.49.19-3.83.13-1.34.35-2.68.67-4.02,2.55-.32,4.99-.54,7.31-.67,2.32-.13,4.28-.19,5.88-.19h2.77c5.16,0,9.21,1.61,12.14,4.83,2.93,3.22,4.4,7.64,4.4,13.25v77.19ZM482.85,68.61c0-1.47.16-3.03.48-4.69s.77-3.12,1.34-4.4c1.27-.7,2.98-1.29,5.11-1.77,2.14-.48,4.19-.72,6.16-.72s4.08.24,6.31.72c2.23.48,3.88,1.07,4.97,1.77.58,1.28,1.02,2.76,1.34,4.45.32,1.69.48,3.24.48,4.64s-.16,2.95-.48,4.64c-.32,1.69-.76,3.14-1.34,4.35-1.02.7-2.66,1.29-4.92,1.77-2.26.48-4.38.72-6.36.72s-4.06-.22-6.26-.67c-2.2-.45-3.87-1.05-5.02-1.82-.57-1.21-1.02-2.66-1.34-4.35-.32-1.69-.48-3.24-.48-4.64Z"/>
    <path class="cls-2" d="M573.91,172.78c.57,1.53,1.02,3.24,1.34,5.12.32,1.88.48,3.78.48,5.69,0,.83-.03,1.66-.09,2.49-.07.83-.19,1.63-.38,2.39-2.36.32-5.1.64-8.22.96-3.12.32-6.12.48-8.98.48-6.63,0-11.58-1.74-14.86-5.21-3.28-3.47-4.92-8.75-4.92-15.83V49.57l1.24-1.24h8.31c4.46,0,7.53,1.07,9.22,3.2,1.69,2.14,2.53,5.63,2.53,10.47v102.26c0,2.81.62,4.93,1.86,6.36,1.24,1.43,3.17,2.15,5.78,2.15h6.69Z"/>
    <path class="cls-2" d="M628.76,172.78c.57,1.53,1.02,3.24,1.34,5.12.32,1.88.48,3.78.48,5.69,0,.83-.03,1.66-.09,2.49-.07.83-.19,1.63-.38,2.39-2.36.32-5.1.64-8.22.96-3.12.32-6.12.48-8.98.48-6.63,0-11.58-1.74-14.86-5.21-3.28-3.47-4.92-8.75-4.92-15.83V49.57l1.24-1.24h8.31c4.46,0,7.53,1.07,9.22,3.2,1.69,2.14,2.53,5.63,2.53,10.47v102.26c0,2.81.62,4.93,1.86,6.36,1.24,1.43,3.17,2.15,5.78,2.15h6.69Z"/>
    <path class="cls-2" d="M678.72,56.68l1.17-1.2h13.29v12.6c0,2.8.03,4.97.1,6.5.06,1.53.1,3.67.1,6.4v90.59c0,1.33-.03,2.58-.1,3.75s-.1,2.48-.1,3.95v12.8h-5.86c-2.61,0-4.69-.9-6.25-2.7-1.56-1.8-2.34-4.27-2.34-7.4V56.68ZM755.53,55.48c.19,1.13.31,2.23.34,3.3.03,1.07.05,2.03.05,2.9s-.07,1.95-.2,3.25c-.13,1.3-.42,2.55-.88,3.75h-54.82c-1.89,0-3.86-.02-5.91-.05s-4.02-.08-5.91-.15v-13h67.33ZM745.47,116.37c.19,1.07.34,2.2.44,3.4.1,1.2.15,2.23.15,3.1s-.05,1.9-.15,3.1c-.1,1.2-.24,2.37-.44,3.5h-40.46c-1.43,0-3.09-.02-4.98-.05-1.89-.03-3.86-.07-5.91-.1-2.05-.03-4.02-.05-5.91-.05v-12.7c1.89,0,3.86-.02,5.91-.05,2.05-.03,4.02-.06,5.91-.1,1.89-.03,3.55-.05,4.98-.05h40.46ZM758.75,178.76c0,5.2-.76,8.72-2.3,10.55-1.53,1.83-4.12,2.75-7.77,2.75h-60.49v-12.5c2.54-.2,5.11-.38,7.72-.55,2.6-.16,5.7-.25,9.28-.25h53.55Z"/>
    <path class="cls-2" d="M812.98,178.04c.38,1.02.68,2.2.91,3.54.22,1.34.33,2.71.33,4.11,0,.51-.02,1.02-.05,1.53-.03.51-.11.99-.24,1.44-1.85.26-4.13.51-6.83.77-2.71.25-5.08.38-7.12.38-4.78,0-8.65-1.35-11.61-4.07-2.96-2.71-4.44-6.65-4.44-11.81V49.57l1.15-1.15h5.16c3.18,0,5.24.81,6.16,2.44.92,1.63,1.39,4.03,1.39,7.22v111.92c0,2.68.61,4.69,1.82,6.03,1.21,1.34,2.99,2.01,5.35,2.01h8.03Z"/>
    <path class="cls-2" d="M838.11,146.47v-10.9h52.17v-2.68c0-5.29-.75-10.14-2.25-14.54s-3.9-7.92-7.21-10.57c-3.31-2.65-7.68-3.97-13.09-3.97-7.52,0-13.27,3.2-17.25,9.61-3.98,6.41-5.97,14.84-5.97,25.3v4.5c0,6.89.75,13.02,2.24,18.41s4.03,9.61,7.6,12.67c3.57,3.06,8.47,4.59,14.72,4.59,5.09,0,9.95-.76,14.57-2.3,4.62-1.53,9-3.47,13.14-5.84,1.34,1.21,2.48,2.77,3.44,4.69.96,1.91,1.53,3.63,1.72,5.16-4.4,3.13-9.65,5.69-15.77,7.7-6.12,2.01-12.46,3.01-19.01,3.01-7.14,0-13.12-1.32-17.97-3.97-4.84-2.65-8.69-6.28-11.56-10.9s-4.94-9.9-6.21-15.83-1.91-12.15-1.91-18.65c0-9.44,1.49-17.86,4.49-25.26,2.99-7.4,7.34-13.21,13.04-17.46,5.7-4.24,12.6-6.36,20.69-6.36s15.05,1.83,20.5,5.5,9.54,8.59,12.28,14.78c2.74,6.19,4.11,13.04,4.11,20.57,0,2.42-.07,4.56-.19,6.41-.13,1.85-.35,3.95-.67,6.31h-65.64Z"/>
    <path class="cls-2" d="M982.49,95.01c1.08-.32,2.09-.49,3.01-.53.92-.03,1.8-.05,2.63-.05,1.34,0,2.56.1,3.68.29s2.21.45,3.3.77l.38.57c-2.36,7.59-4.97,15.72-7.84,24.39-2.87,8.67-5.75,17.28-8.65,25.83-2.9,8.55-5.62,16.53-8.17,23.96-2.55,7.43-4.75,13.69-6.59,18.8-1.53.38-3.15.64-4.87.77-1.72.13-3.38.19-4.97.19-2.93,0-5.11-.53-6.55-1.58-1.43-1.05-2.82-3.62-4.16-7.7l-28.57-84.47c1.97-.96,3.61-1.59,4.92-1.91,1.31-.32,2.56-.48,3.77-.48,1.72,0,3.17.4,4.35,1.2,1.18.8,2.08,2.22,2.72,4.26l15.1,45.53c1.21,3.57,2.42,7.33,3.63,11.29,1.21,3.96,2.31,7.64,3.3,11.05s1.7,6.11,2.15,8.08c.19.64.38,1.05.57,1.24s.57.29,1.15.29l25.7-81.79Z"/>
    <path class="cls-2" d="M1007.14,163.59c0-7.08,1.51-12.9,4.54-17.46,3.02-4.56,7.23-7.92,12.61-10.09s11.61-3.25,18.68-3.25c3.95,0,8.22.21,12.81.62,4.59.41,8.92,1.13,13,2.15v10.14c-3.76-.89-7.88-1.5-12.38-1.82s-8.9-.48-13.23-.48c-6.63,0-11.9,1.67-15.82,5.02-3.92,3.35-5.88,8.05-5.88,14.11,0,4.66,1.29,8.61,3.87,11.86,2.58,3.25,6.35,4.88,11.32,4.88s10.56-1.75,16.39-5.26c5.83-3.51,10.75-8.83,14.76-15.98l2.39,12.92c-2.17,2.55-4.99,5.42-8.46,8.61-3.47,3.19-7.47,5.95-11.99,8.27-4.52,2.33-9.53,3.49-15,3.49-6.18,0-11.32-1.37-15.43-4.11s-7.17-6.23-9.17-10.47c-2.01-4.24-3.01-8.62-3.01-13.15ZM1083.01,183.01c-.45,1.34-1.26,2.73-2.44,4.16s-2.5,2.5-3.96,3.21c-3.12-1.15-5.61-2.74-7.45-4.78-1.85-2.04-3.17-4.45-3.97-7.22s-1.23-5.82-1.29-9.13v-44.38c0-7.08-1.56-12.1-4.68-15.07-3.12-2.97-7.33-4.45-12.61-4.45s-10.37.77-15.62,2.3c-5.26,1.53-10.43,3.41-15.53,5.65-1.27-1.09-2.4-2.71-3.39-4.88-.99-2.17-1.48-4.24-1.48-6.22,3.18-1.4,6.83-2.79,10.94-4.16,4.11-1.37,8.44-2.5,13-3.4,4.55-.89,9.06-1.34,13.52-1.34,6.62,0,12.13,1.21,16.53,3.63,4.4,2.42,7.68,6,9.84,10.71,2.17,4.72,3.25,10.52,3.25,17.41v39.41c0,4.02.3,7.56.91,10.62.61,3.06,2.08,5.71,4.44,7.94Z"/>
    <path class="cls-2" d="M1149.42,95.01c.45,1.85.67,3.67.67,5.45,0,1.02-.05,1.96-.14,2.82s-.27,1.74-.53,2.63l-28.86-.38-22.65.38c-.38-1.85-.57-3.67-.57-5.45,0-1.66.19-3.48.57-5.45l22.55.38,28.95-.38ZM1111.39,75.21c0-3.19.46-5.6,1.39-7.22.92-1.63,2.98-2.44,6.16-2.44h5.16l1.15,1.24v103.41c0,2.3.58,4.18,1.72,5.64,1.15,1.47,3.09,2.2,5.83,2.2h14.53c.38,1.02.67,2.2.86,3.54.19,1.34.29,2.71.29,4.11v1.53c0,.51-.06.99-.19,1.44-2.99.38-6.04.67-9.12.86-3.09.19-6.52.29-10.27.29-5.35,0-9.6-1.35-12.76-4.07-3.15-2.71-4.73-6.65-4.73-11.81v-98.72Z"/>
    <path class="cls-2" d="M1172.26,146.47v-10.9h52.17v-2.68c0-5.29-.75-10.14-2.25-14.54s-3.9-7.92-7.21-10.57c-3.31-2.65-7.68-3.97-13.09-3.97-7.52,0-13.27,3.2-17.25,9.61-3.98,6.41-5.97,14.84-5.97,25.3v4.5c0,6.89.75,13.02,2.24,18.41s4.03,9.61,7.6,12.67c3.57,3.06,8.47,4.59,14.72,4.59,5.09,0,9.95-.76,14.57-2.3,4.62-1.53,9-3.47,13.14-5.84,1.34,1.21,2.48,2.77,3.44,4.69.96,1.91,1.53,3.63,1.72,5.16-4.4,3.13-9.65,5.69-15.77,7.7-6.12,2.01-12.46,3.01-19.01,3.01-7.14,0-13.12-1.32-17.97-3.97-4.84-2.65-8.69-6.28-11.56-10.9-2.87-4.62-4.94-9.9-6.21-15.83s-1.91-12.15-1.91-18.65c0-9.44,1.49-17.86,4.49-25.26,2.99-7.4,7.34-13.21,13.04-17.46,5.7-4.24,12.6-6.36,20.69-6.36s15.05,1.83,20.5,5.5,9.54,8.59,12.28,14.78c2.74,6.19,4.11,13.04,4.11,20.57,0,2.42-.07,4.56-.19,6.41-.13,1.85-.35,3.95-.67,6.31h-65.64Z"/>
    <path class="cls-5" d="M1286.41,48.35h26.66v143.71h-26.66V48.35Z"/>
    <path class="cls-1" d="M1380.95,70.94h-47.58v-22.58h121.82v22.58h-47.58v121.13h-26.66v-121.13Z"/>
  </g>
  <g>
    <path class="cls-3" d="M179.22,212.82c-3.59,0-7.79-2.1-10.84-4.38l-37.57-26.46,7.55-23.77,26.43,18.27-12.73-37.53c-2.38-7.02.01-14.71,5.94-19.14l33.87-25.3-42.26.54h-.22c-7.31,0-13.78-4.63-16.13-11.58l-13.57-40.06-12.55,40.4c-2.2,7.08-8.65,11.89-16.05,11.99l-42.26.54,33.96,23.5-7.7,23.62-57.01-39.71c-6.05-4.28-8.63-11.91-6.43-18.99,2.2-7.08,8.65-11.89,16.05-11.98l58.17-.74,17.27-55.61c2.2-7.08,8.65-11.89,16.05-11.99.07,0,.15,0,.22,0,7.31,0,13.77,4.63,16.13,11.58l18.68,55.15,58.17-.74h.22c7.31,0,13.78,4.63,16.13,11.58,2.38,7.02-.01,14.71-5.95,19.14l-46.62,34.83,18.43,54.43c2.41,7.12-.05,14.86-6.13,19.28-3,2.18-5.77,3.16-9.27,3.16Z"/>
    <path class="cls-2" d="M133.16,118.24c-.57-.19-1.15-.27-1.72-.27-2.42,0-4.68,1.56-5.44,4l-3.93,12.4-15.67-10.86,4.5-14.21c.95-3.01-.71-6.23-3.72-7.18-.57-.19-1.15-.27-1.72-.27-2.42,0-4.68,1.56-5.44,4l-3.44,10.85-2.42,7.65-5.22,16.5-2.42,7.64-5.01,15.86h0s-2.43,7.66-2.43,7.66l-5,15.81-2.42,7.66-4.89,15.48c-.76,2.39.13,4.99,2.19,6.42h0c3.16,2.19,7.53.69,8.69-2.97l3.83-12.13,15.67,10.86-4.89,15.48c-.76,2.39.13,5,2.2,6.42h0c3.16,2.18,7.53.69,8.69-2.97l3.83-12.12,2.43-7.66,5-15.82,2.42-7.64,5.01-15.86,2.43-7.65,5.21-16.5,2.42-7.65,4.99-15.74c.95-3.01-.71-6.23-3.72-7.18ZM99.56,205.47l-15.67-10.85,4.99-15.81,15.68,10.85-5,15.81ZM106.99,182.01l-15.67-10.86,5.01-15.86,15.67,10.86-5.01,15.86ZM114.42,158.5l-15.67-10.85,5.22-16.5,15.67,10.85-5.22,16.5Z"/>
  </g>
</svg>