<svg width="93" height="70" viewBox="0 0 93 70" fill="none" xmlns="http://www.w3.org/2000/svg">
<g clip-path="url(#clip0_103_111)">
<path d="M4.07788 51.9432L4.25003 51.7948C4.57536 51.5257 4.91788 51.2778 5.27544 51.0525C6.0037 50.58 6.78806 50.1985 7.61068 49.9169C8.3439 49.666 9.0943 49.4675 9.85611 49.323V3.78491C4.02549 4.67564 4.06291 10.4653 4.09285 15.8913C4.11935 16.3511 4.11935 16.8121 4.09285 17.2719V51.9432H4.07788ZM50.1989 59.0616C49.5853 60.0073 48.7306 60.7755 47.7214 61.2884C46.8762 61.7361 45.9328 61.9703 44.9745 61.9703C44.0163 61.9703 43.0729 61.7361 42.2276 61.2884C41.6241 60.9538 41.0886 60.5108 40.6484 59.982L50.1989 59.0987V59.0616ZM51.142 31.2637C51.0655 31.1824 50.9727 31.1179 50.8696 31.0745C50.7664 31.031 50.6552 31.0095 50.5432 31.0113C50.43 31.0093 50.3177 31.0308 50.2133 31.0742C50.1089 31.1177 50.0148 31.1822 49.9369 31.2637L49.0163 32.1767C48.7653 32.0229 48.5025 31.8889 48.2304 31.7758C47.9597 31.6541 47.6823 31.5476 47.3996 31.4567V30.0315C47.4006 29.9201 47.3792 29.8096 47.3367 29.7065C47.2942 29.6034 47.2313 29.5097 47.1519 29.4309C47.0725 29.3522 46.978 29.2899 46.874 29.2477C46.7701 29.2055 46.6587 29.1843 46.5463 29.1853H44.7799C44.6687 29.1843 44.5583 29.2055 44.4555 29.2475C44.3526 29.2896 44.2593 29.3518 44.1812 29.4303C44.0983 29.5069 44.0327 29.6001 43.9888 29.7038C43.945 29.8074 43.9238 29.9191 43.9267 30.0315V31.3156C43.6342 31.3831 43.3467 31.4699 43.0659 31.5754C42.7954 31.6832 42.5306 31.8046 42.2725 31.9391L41.2546 30.9445C41.1812 30.8614 41.09 30.7957 40.9877 30.752C40.8854 30.7084 40.7746 30.6879 40.6633 30.6921C40.5502 30.6906 40.438 30.7123 40.3337 30.7557C40.2294 30.7991 40.1352 30.8634 40.0571 30.9445L38.8221 32.1767C38.7403 32.2542 38.6755 32.3475 38.6317 32.451C38.5879 32.5544 38.5661 32.6657 38.5676 32.7779C38.5658 32.889 38.5875 32.9993 38.6313 33.1016C38.6751 33.2039 38.7401 33.2959 38.8221 33.3717L39.7352 34.2921C39.5778 34.5293 39.4377 34.7773 39.3161 35.0344C39.1922 35.3033 39.0822 35.5783 38.9867 35.8583H37.5721C37.4607 35.8564 37.3502 35.8772 37.2472 35.9193C37.1442 35.9614 37.051 36.024 36.9733 36.1032C36.8922 36.1808 36.8283 36.2744 36.7857 36.378C36.7432 36.4815 36.723 36.5927 36.7263 36.7045V38.4637C36.7263 38.6861 36.8155 38.8995 36.9741 39.0568C37.1327 39.2141 37.3478 39.3024 37.5721 39.3024H38.867C38.933 39.5938 39.0231 39.8793 39.1364 40.156C39.2402 40.4312 39.3628 40.699 39.5032 40.9577L38.4927 41.982C38.4121 42.0573 38.3479 42.1481 38.3041 42.249C38.2603 42.3499 38.2379 42.4586 38.2383 42.5684C38.2385 42.6803 38.2611 42.7911 38.3048 42.8943C38.3484 42.9975 38.4123 43.0911 38.4927 43.1696L39.7352 44.3944C39.9 44.5462 40.1166 44.6306 40.3415 44.6306C40.5664 44.6306 40.783 44.5462 40.9477 44.3944L41.8609 43.4888C42.1015 43.6447 42.3515 43.786 42.6094 43.9119C42.8831 44.0324 43.1629 44.1389 43.4477 44.2311V45.634C43.4467 45.7447 43.4678 45.8546 43.5099 45.9572C43.5519 46.0598 43.6141 46.1532 43.6927 46.2319C43.7714 46.3105 43.8649 46.373 43.968 46.4156C44.0711 46.4582 44.1817 46.4802 44.2934 46.4802H46.0673C46.2936 46.4802 46.5106 46.391 46.6707 46.2323C46.8307 46.0736 46.9206 45.8584 46.9206 45.634V44.3498C47.2358 44.2853 47.546 44.1985 47.8487 44.09C48.1045 43.982 48.3543 43.8606 48.5972 43.7263L49.6001 44.721C49.677 44.8007 49.7693 44.8641 49.8716 44.9075C49.9739 44.9508 50.0839 44.9732 50.1951 44.9732C50.3064 44.9732 50.4164 44.9508 50.5187 44.9075C50.621 44.8641 50.7133 44.8007 50.7902 44.721L52.0476 43.4888C52.1328 43.4166 52.2026 43.3281 52.2527 43.2287C52.3029 43.1292 52.3324 43.0208 52.3395 42.9098C52.3424 42.7999 52.3226 42.6906 52.2814 42.5885C52.2403 42.4864 52.1785 42.3937 52.1 42.316L51.142 41.3733C51.3059 41.1388 51.4487 40.8905 51.5686 40.6311C51.6925 40.3622 51.8024 40.0872 51.8979 39.8072H53.3051C53.4174 39.8082 53.5288 39.7869 53.6328 39.7448C53.7367 39.7026 53.8312 39.6403 53.9106 39.5615C53.9901 39.4828 54.0529 39.3891 54.0954 39.286C54.1379 39.1829 54.1593 39.0724 54.1583 38.961V37.1721C54.1585 37.0619 54.1368 36.9527 54.0944 36.8508C54.052 36.7489 53.9898 36.6563 53.9113 36.5783C53.8325 36.4985 53.7381 36.4356 53.6338 36.3935C53.5295 36.3514 53.4176 36.3309 53.3051 36.3334H52.0177C51.945 36.0462 51.855 35.7636 51.7482 35.4872C51.6487 35.2127 51.526 34.947 51.3815 34.6929L52.3844 33.6835C52.4675 33.6097 52.5339 33.5193 52.5791 33.4182C52.6242 33.3171 52.6472 33.2076 52.6464 33.0971C52.6465 32.9844 52.6233 32.8729 52.5783 32.7695C52.5332 32.6661 52.4672 32.573 52.3844 32.4958L51.142 31.2637ZM46.2619 16.6855C46.2957 16.282 46.4895 15.9083 46.8008 15.6464C46.9503 15.5184 47.1238 15.4211 47.3113 15.36C47.4989 15.2988 47.6968 15.2751 47.8936 15.2901H47.9984C48.3707 15.3422 48.7112 15.5269 48.9564 15.8097C49.0955 15.9599 49.2018 16.137 49.2687 16.3299C49.3357 16.5227 49.3619 16.7272 49.3456 16.9305C49.3456 16.9305 49.3456 16.9824 49.3456 17.0047L49.0837 20.2336C49.0837 20.2336 49.0837 20.3004 49.0837 20.3375C49.0281 20.7165 48.8312 21.0609 48.5318 21.3029C48.2324 21.5448 47.8524 21.6665 47.467 21.6439H47.3547C46.968 21.599 46.6141 21.4065 46.3682 21.1071C46.1222 20.8078 46.0036 20.4252 46.0374 20.0406C46.0337 20.016 46.0337 19.991 46.0374 19.9663L46.2919 16.7226L46.2619 16.6855ZM29.1368 21.436C28.8512 21.151 28.6908 20.7654 28.6908 20.3635C28.6908 19.9616 28.8512 19.576 29.1368 19.2909C29.432 19.0139 29.8232 18.8598 30.2296 18.8604C30.4305 18.8631 30.6288 18.9059 30.8127 18.9862C30.9966 19.0666 31.1623 19.1828 31.2999 19.328L33.6277 21.7181C33.907 22.0109 34.0624 22.3988 34.0618 22.8018C34.0547 23.1015 33.9584 23.3925 33.7852 23.6381C33.6119 23.8838 33.3693 24.0732 33.0879 24.1827C32.8064 24.2921 32.4987 24.3166 32.2032 24.2532C31.9077 24.1898 31.6378 24.0412 31.4272 23.8261L29.1368 21.436ZM24.2044 37.8921C23.7987 37.8824 23.4135 37.7137 23.1329 37.4229C22.8524 37.1322 22.6994 36.7431 22.7074 36.3408C22.7111 36.141 22.7555 35.944 22.8378 35.7616C22.9201 35.5792 23.0387 35.4152 23.1864 35.2793C23.3311 35.1408 23.5024 35.0326 23.6902 34.9612C23.8779 34.8898 24.0783 34.8566 24.2792 34.8637L27.6249 34.9305C27.8273 34.9303 28.0276 34.9708 28.2138 35.0495C28.3999 35.1283 28.568 35.2436 28.7079 35.3886C28.8479 35.5336 28.9567 35.7053 29.0278 35.8932C29.099 36.0811 29.131 36.2813 29.1218 36.4818V36.5412C29.0908 36.914 28.923 37.2626 28.6503 37.521C28.5063 37.6608 28.3352 37.7704 28.1475 37.8431C27.9597 37.9158 27.759 37.9501 27.5575 37.9441H27.4977L24.1894 37.8698L24.2044 37.8921ZM66.5605 35.4872H66.6129C66.8133 35.4812 67.0128 35.5152 67.1996 35.5871C67.3864 35.6591 67.5568 35.7675 67.7006 35.9059C67.8444 36.0444 67.9587 36.21 68.0367 36.3931C68.1147 36.5762 68.1549 36.7729 68.1548 36.9717C68.1608 37.1673 68.1277 37.3621 68.0575 37.545C67.9873 37.7278 67.8813 37.8951 67.7457 38.0372C67.61 38.1793 67.4474 38.2934 67.2671 38.373C67.0869 38.4525 66.8925 38.496 66.6953 38.5008L63.3571 38.6641C63.1564 38.6751 62.9556 38.6459 62.7666 38.5783C62.5776 38.5108 62.4042 38.4061 62.2568 38.2707C62.1067 38.1385 61.985 37.9777 61.8989 37.7979C61.8127 37.6181 61.7639 37.423 61.7553 37.2241C61.737 36.8229 61.8793 36.4307 62.1514 36.1332C62.4234 35.8356 62.803 35.6568 63.2074 35.6356C64.3226 35.5762 65.4528 35.5094 66.5605 35.4649V35.4872ZM60.715 21.9408C60.8331 21.7795 60.9828 21.6435 61.1552 21.5408C61.3275 21.4381 61.5189 21.3709 61.718 21.3432C61.9171 21.3155 62.1197 21.3279 62.3139 21.3795C62.5081 21.4312 62.6897 21.5211 62.8481 21.6439C63.0087 21.7621 63.1437 21.911 63.2453 22.0818C63.3468 22.2527 63.4128 22.442 63.4394 22.6385C63.4689 22.8352 63.4583 23.0358 63.4082 23.2283C63.358 23.4208 63.2694 23.6014 63.1475 23.7593L61.1341 26.4167C61.0148 26.5781 60.8637 26.7139 60.6901 26.8159C60.5164 26.918 60.3238 26.9842 60.1237 27.0105C59.8181 27.0724 59.5006 27.0382 59.2156 26.9125C58.9306 26.7868 58.6923 26.5759 58.534 26.3094C58.3757 26.0429 58.3053 25.7339 58.3327 25.4258C58.36 25.1176 58.4838 24.8257 58.6866 24.5907L60.7075 21.9334L60.715 21.9408ZM35.8731 47.9276C35.3941 47.2892 34.8776 46.6212 34.3761 45.827C33.784 44.9803 33.2823 44.0748 32.8792 43.1251C32.4668 42.1303 32.1607 41.0954 31.966 40.0373V40.0002C31.7825 38.9566 31.7222 37.8955 31.7864 36.8381C31.8644 35.731 32.0754 34.637 32.4151 33.5795C32.7868 32.4355 33.2891 31.3372 33.9121 30.3061L34.0094 30.1577C34.7901 28.999 35.7499 27.9695 36.8536 27.107C37.9661 26.2351 39.2185 25.5551 40.5585 25.0954H40.6558C41.6591 24.7586 42.6994 24.5418 43.7545 24.4496C44.865 24.3543 45.983 24.3892 47.0852 24.5536C48.1655 24.7081 49.2249 24.9819 50.2438 25.3701L50.3486 25.4146C51.3245 25.7975 52.2577 26.2801 53.1329 26.8546C54.3121 27.632 55.3604 28.5889 56.2391 29.6901C57.0994 30.7601 57.7702 31.9674 58.2225 33.2604C58.4836 34.0022 58.6814 34.7645 58.8138 35.5391C58.9484 36.3634 59.0061 37.1983 58.986 38.0331C58.9625 38.9672 58.8345 39.8958 58.6043 40.8018C58.3779 41.7366 58.0518 42.6449 57.6312 43.5111C56.5608 45.5049 55.2597 47.3682 53.7541 49.0632C53.0057 49.9911 52.2572 50.9115 51.6135 51.8022C51.479 51.991 51.2922 52.1371 51.0756 52.2228C50.8591 52.3084 50.6221 52.3299 50.3935 52.2847L39.2936 53.3016C39.0142 53.3291 38.734 53.2578 38.5026 53.1002C38.2711 52.9426 38.1032 52.709 38.0287 52.4406C37.7864 51.5625 37.4709 50.706 37.0856 49.8797C36.7549 49.1869 36.3483 48.5322 35.8731 47.9276ZM36.3147 44.528C36.7488 45.1812 37.2578 45.827 37.7592 46.4579C38.3475 47.2067 38.8496 48.0183 39.2562 48.8777C39.5572 49.5208 39.8221 50.1799 40.0496 50.8521L50.0193 49.9317C50.5956 49.1894 51.2393 48.3729 51.883 47.5787C53.2603 46.0275 54.4602 44.3297 55.4607 42.5164C55.8102 41.789 56.0836 41.0279 56.2765 40.2451C56.4606 39.5162 56.5635 38.7695 56.5834 38.0183C56.6048 37.33 56.5572 36.6412 56.4412 35.9622C56.3331 35.3213 56.1703 34.6905 55.9547 34.0769C55.5921 33.034 55.0529 32.0601 54.3604 31.1969C53.639 30.2718 52.7752 29.4652 51.8006 28.8068C51.072 28.3262 50.2943 27.9231 49.4804 27.6043H49.3905C48.5351 27.2815 47.6466 27.0525 46.7409 26.9214C45.8217 26.7878 44.8901 26.7579 43.9641 26.8323C43.1032 26.9065 42.2541 27.0809 41.4343 27.3519H41.337C40.2547 27.7144 39.2423 28.2565 38.3431 28.9552C37.436 29.6588 36.6499 30.5036 36.0153 31.4567V31.5012C35.488 32.3713 35.0612 33.2976 34.7429 34.2624C34.4537 35.1403 34.2752 36.0503 34.2115 36.9717C34.1566 37.8405 34.2068 38.7127 34.3612 39.5696C34.52 40.466 34.7708 41.344 35.1096 42.1898C35.4403 42.9881 35.8463 43.7536 36.3222 44.476L36.3147 44.528ZM45.4386 33.1639C46.0709 33.1596 46.6974 33.2834 47.2798 33.5276C47.8384 33.7611 48.3466 34.0988 48.7768 34.5222C49.2038 34.9504 49.5465 35.4539 49.7872 36.0068C50.2665 37.1726 50.2665 38.4781 49.7872 39.6439C49.5465 40.1967 49.2038 40.7002 48.7768 41.1284C48.3466 41.5519 47.8384 41.8895 47.2798 42.123C46.6974 42.3629 46.073 42.4864 45.4423 42.4864C44.8117 42.4864 44.1872 42.3629 43.6048 42.123C43.0463 41.8895 42.5381 41.5519 42.1079 41.1284C41.6809 40.7002 41.3382 40.1967 41.0974 39.6439C40.8553 39.0676 40.7307 38.4496 40.7307 37.8253C40.7307 37.2011 40.8553 36.583 41.0974 36.0068C41.3382 35.4539 41.6809 34.9504 42.1079 34.5222C42.5381 34.0988 43.0463 33.7611 43.6048 33.5276C44.1846 33.2834 44.8087 33.1596 45.4386 33.1639ZM51.4264 53.8509V54.4669V54.6822C51.4388 55.0862 51.4213 55.4906 51.374 55.8921L51.142 56.768L39.5107 57.8368L39.3385 57.3692L38.9867 55.5284V54.994L51.374 53.8509H51.4264ZM92.6 21.3841V68.7036H79.6888V21.3841H79.6364L80.078 20.5008L85.4071 9.64141L85.946 8.528L86.5149 9.61914L92.1883 20.4859L92.6673 21.3841H92.6ZM81.6348 20.1445H90.6165L87.0388 13.3156H84.973L81.6199 20.1445H81.6348ZM12.9174 50.6591C12.8945 50.9918 12.7661 51.3087 12.5506 51.5647C12.3111 51.8453 11.975 52.0278 11.6075 52.0768H11.5701C10.7203 52.2 9.88 52.3811 9.05524 52.6187C8.32205 52.8325 7.62377 53.15 6.98197 53.5614C6.36099 53.9727 5.81654 54.4875 5.37275 55.083C4.82848 55.8167 4.38312 56.6177 4.04794 57.4657C3.99258 58.6151 4.08057 59.767 4.30991 60.895C4.50983 61.867 4.90156 62.7903 5.46256 63.6117C6.05258 64.4185 6.82057 65.0812 7.70799 65.549C8.8157 66.1228 10.0122 66.5091 11.2483 66.6921H75.677C75.7379 66.6921 75.7983 66.704 75.8546 66.7271C75.9109 66.7503 75.962 66.7842 76.0051 66.8269C76.0482 66.8696 76.0824 66.9204 76.1057 66.9762C76.129 67.032 76.141 67.0919 76.141 67.1523V68.6368V68.9263L76.1784 69.2158C76.1979 69.3358 76.1687 69.4586 76.0972 69.5574C76.0257 69.6561 75.9176 69.7228 75.7967 69.7428H11.1734C9.59201 69.6618 8.0527 69.2089 6.68258 68.4216C5.21878 67.6718 3.9407 66.6096 2.9402 65.3115C2.15799 64.1969 1.60365 62.941 1.30853 61.615C0.996439 60.137 0.885675 58.6241 0.979199 57.1168C0.979199 43.8154 0.335511 28.9775 0.979199 15.869C0.956745 12.3061 0.93429 8.60223 2.19173 5.72223C3.44917 2.84223 6.05386 0.697081 11.2183 0.600586H11.3755C11.7867 0.601315 12.1815 0.761093 12.4758 1.04595C12.763 1.3378 12.9241 1.72926 12.9249 2.13708V9.41873H80.8639C80.987 9.41873 81.105 9.46721 81.192 9.55352C81.2791 9.63982 81.328 9.75688 81.328 9.87893C81.3288 9.96053 81.3053 10.0406 81.2606 10.109L80.2202 12.2245C80.1841 12.3025 80.1261 12.3686 80.0531 12.4147C79.98 12.4608 79.8951 12.4849 79.8085 12.4843H12.9249V50.6591H12.9174Z" fill="#FFDB70"/>
</g>
<defs>
<clipPath id="clip0_103_111">
<rect width="91.9726" height="69.2165" fill="white" transform="translate(0.695068 0.600586)"/>
</clipPath>
</defs>
</svg>
